<svg xmlns="http://www.w3.org/2000/svg" viewBox="0 0 24 24" fill="none">
  <!-- Corpo -->
  <path d="M6 7h12l-1 13a2 2 0 0 1-2 2H9a2 2 0 0 1-2-2L6 7z" fill="#9CA3AF"/>

  <!-- Tampa -->
  <path d="M9 3h6l1 2H8l1-2z" fill="#6B7280"/>

  <!-- Linha topo -->
  <rect x="4" y="5" width="16" height="2" rx="1" fill="#6B7280"/>

  <!-- Linhas internas -->
  <path d="M10 10v8M14 10v8" stroke="#4B5563" stroke-width="1.5" stroke-linecap="round"/>

  <!-- Destaque leve -->
  <path d="M7 7h10l-.6 9.5a1.5 1.5 0 0 1-1.5 1.4H9.1a1.5 1.5 0 0 1-1.5-1.4L7 7z" fill="rgba(255,255,255,0.1)"/>
</svg>